<svg width="33" height="24" viewBox="0 0 33 24" fill="none" xmlns="http://www.w3.org/2000/svg">
<g clip-path="url(#clip0_36_793)">
<path d="M0.166504 0H32.1665V24H0.166504V0Z" fill="#74ACDF"/>
<path d="M0.166504 8H32.1665V16H0.166504V8Z" fill="white"/>
<path d="M16.0127 12.0624L17.3807 15.0384C17.3807 15.0384 17.4047 15.096 17.4431 15.0816C17.4815 15.0624 17.4575 15.0096 17.4575 15.0096L16.3199 11.9376M16.2863 13.0944C16.2671 13.5456 16.5455 13.7952 16.5119 14.1984C16.4735 14.6064 16.6943 14.832 16.7519 14.9904C16.7999 15.1488 16.6895 15.24 16.7375 15.264C16.7855 15.288 16.8815 15.1632 16.8527 14.9376C16.8191 14.7168 16.6511 14.6496 16.6895 14.1552C16.7279 13.6608 16.4879 13.5456 16.5455 13.0992" fill="#F6B40E"/>
<path d="M16.0127 12.0624L17.3807 15.0384C17.3807 15.0384 17.4047 15.096 17.4431 15.0816C17.4815 15.0624 17.4575 15.0096 17.4575 15.0096L16.3199 11.9376M16.2863 13.0944C16.2671 13.5456 16.5455 13.7952 16.5119 14.1984C16.4735 14.6064 16.6943 14.832 16.7519 14.9904C16.7999 15.1488 16.6895 15.24 16.7375 15.264C16.7855 15.288 16.8815 15.1632 16.8527 14.9376C16.8191 14.7168 16.6511 14.6496 16.6895 14.1552C16.7279 13.6608 16.4879 13.5456 16.5455 13.0992" stroke="#85340A" stroke-width="0.132"/>
<path d="M16.0006 11.9989L16.1256 15.2718C16.1256 15.2718 16.1257 15.3342 16.1667 15.3356C16.2095 15.3326 16.2076 15.2746 16.2076 15.2746L16.3322 12.0011M15.8584 13.057C15.668 13.4665 15.8297 13.8037 15.6444 14.1633C15.4528 14.5256 15.5704 14.8185 15.563 14.9869C15.5467 15.1516 15.4098 15.1936 15.445 15.2341C15.4802 15.2747 15.6166 15.1961 15.6763 14.9767C15.7298 14.7598 15.6003 14.6334 15.825 14.1914C16.0497 13.7493 15.872 13.551 16.0961 13.1606" fill="#F6B40E"/>
<path d="M16.0006 11.9989L16.1256 15.2718C16.1256 15.2718 16.1257 15.3342 16.1667 15.3356C16.2095 15.3326 16.2076 15.2746 16.2076 15.2746L16.3322 12.0011M15.8584 13.057C15.668 13.4665 15.8297 13.8037 15.6444 14.1633C15.4528 14.5256 15.5704 14.8185 15.563 14.9869C15.5467 15.1516 15.4098 15.1936 15.445 15.2341C15.4802 15.2747 15.6166 15.1961 15.6763 14.9767C15.7298 14.7598 15.6003 14.6334 15.825 14.1914C16.0497 13.7493 15.872 13.551 16.0961 13.1606" stroke="#85340A" stroke-width="0.132"/>
<path d="M16.0136 11.9355L14.8765 15.0072C14.8765 15.0072 14.8528 15.0649 14.8901 15.0819C14.9308 15.0954 14.9512 15.0411 14.9512 15.0411L16.319 12.0645M15.4773 12.8587C15.1447 13.1642 15.165 13.5375 14.8562 13.7989C14.5405 14.0602 14.5371 14.3759 14.4658 14.5286C14.3878 14.6746 14.2452 14.661 14.2622 14.7119C14.2792 14.7628 14.4353 14.7424 14.5745 14.5626C14.7068 14.3827 14.6356 14.2164 15.0123 13.8939C15.389 13.5715 15.3008 13.3203 15.6572 13.0454" fill="#F6B40E"/>
<path d="M16.0136 11.9355L14.8765 15.0072C14.8765 15.0072 14.8528 15.0649 14.8901 15.0819C14.9308 15.0954 14.9512 15.0411 14.9512 15.0411L16.319 12.0645M15.4773 12.8587C15.1447 13.1642 15.165 13.5375 14.8562 13.7989C14.5405 14.0602 14.5371 14.3759 14.4658 14.5286C14.3878 14.6746 14.2452 14.661 14.2622 14.7119C14.2792 14.7628 14.4353 14.7424 14.5745 14.5626C14.7068 14.3827 14.6356 14.2164 15.0123 13.8939C15.389 13.5715 15.3008 13.3203 15.6572 13.0454" stroke="#85340A" stroke-width="0.132"/>
<path d="M16.05 11.882L13.824 14.2847C13.824 14.2847 13.78 14.3289 13.808 14.3589C13.8404 14.387 13.88 14.3446 13.88 14.3446L16.2828 12.118M15.2012 12.5297C14.777 12.6846 14.653 13.0373 14.2676 13.1606C13.876 13.2812 13.752 13.5716 13.6277 13.6854C13.4998 13.7904 13.3733 13.7233 13.3695 13.7768C13.3657 13.8303 13.5177 13.8713 13.7151 13.7583C13.9062 13.6428 13.904 13.4619 14.3755 13.3081C14.8469 13.1544 14.8615 12.8886 15.296 12.771" fill="#F6B40E"/>
<path d="M16.05 11.882L13.824 14.2847C13.824 14.2847 13.78 14.3289 13.808 14.3589C13.8404 14.387 13.88 14.3446 13.88 14.3446L16.2828 12.118M15.2012 12.5297C14.777 12.6846 14.653 13.0373 14.2676 13.1606C13.876 13.2812 13.752 13.5716 13.6277 13.6854C13.4998 13.7904 13.3733 13.7233 13.3695 13.7768C13.3657 13.8303 13.5177 13.8713 13.7151 13.7583C13.9062 13.6428 13.904 13.4619 14.3755 13.3081C14.8469 13.1544 14.8615 12.8886 15.296 12.771" stroke="#85340A" stroke-width="0.132"/>
<path d="M16.3728 13.1712C16.3968 13.6032 16.6416 13.7952 16.5936 14.1936C16.6992 13.8816 16.4448 13.6368 16.4592 13.176M16.0896 12.0336L17.0256 14.0784L16.2432 11.9712" fill="#85340A"/>
<path d="M15.9089 13.161C15.7657 13.5693 15.9184 13.8404 15.7216 14.1901C15.9386 13.9423 15.7972 13.6187 15.9869 13.1985M16.0826 12.0017L16.1648 14.249L16.2484 12.0028" fill="#85340A"/>
<path d="M15.484 12.9741C15.1955 13.2966 15.2329 13.6054 14.9172 13.8532C15.2125 13.7072 15.2057 13.3543 15.5417 13.0386M16.0882 11.9695L15.3042 14.0772L16.2409 12.0339" fill="#85340A"/>
<path d="M15.1633 12.6389C14.7734 12.8264 14.6897 13.126 14.3032 13.2341C14.6319 13.2123 14.7607 12.8836 15.1919 12.7206M16.1059 11.9419L14.575 13.5892L16.2224 12.0599" fill="#85340A"/>
<path d="M16.1042 11.8464L13.1282 13.2144C13.1282 13.2144 13.0706 13.2384 13.085 13.2768C13.1042 13.3152 13.157 13.2912 13.157 13.2912L16.229 12.1536M15.0722 12.12C14.621 12.1008 14.3714 12.3792 13.9682 12.3456C13.5602 12.3072 13.3346 12.528 13.1762 12.5856C13.0178 12.6336 12.9266 12.5232 12.9026 12.5712C12.8786 12.6192 13.0034 12.7152 13.229 12.6864C13.4498 12.6528 13.517 12.4848 14.0114 12.5232C14.5058 12.5616 14.621 12.3216 15.0674 12.3792" fill="#F6B40E"/>
<path d="M16.1042 11.8464L13.1282 13.2144C13.1282 13.2144 13.0706 13.2384 13.085 13.2768C13.1042 13.3152 13.157 13.2912 13.157 13.2912L16.229 12.1536M15.0722 12.12C14.621 12.1008 14.3714 12.3792 13.9682 12.3456C13.5602 12.3072 13.3346 12.528 13.1762 12.5856C13.0178 12.6336 12.9266 12.5232 12.9026 12.5712C12.8786 12.6192 13.0034 12.7152 13.229 12.6864C13.4498 12.6528 13.517 12.4848 14.0114 12.5232C14.5058 12.5616 14.621 12.3216 15.0674 12.3792" stroke="#85340A" stroke-width="0.132"/>
<path d="M16.1677 11.8342L12.8947 11.9592C12.8947 11.9592 12.8323 11.9593 12.8309 12.0003C12.8339 12.0432 12.8919 12.0412 12.8919 12.0412L16.1654 12.1658M15.1095 11.6921C14.7 11.5017 14.3629 11.6633 14.0032 11.478C13.641 11.2864 13.348 11.4041 13.1797 11.3967C13.0149 11.3804 12.9729 11.2435 12.9324 11.2786C12.8919 11.3138 12.9704 11.4503 13.1899 11.51C13.4067 11.5634 13.5331 11.4339 13.9752 11.6586C14.4172 11.8833 14.6155 11.7056 15.0059 11.9297" fill="#F6B40E"/>
<path d="M16.1677 11.8342L12.8947 11.9592C12.8947 11.9592 12.8323 11.9593 12.8309 12.0003C12.8339 12.0432 12.8919 12.0412 12.8919 12.0412L16.1654 12.1658M15.1095 11.6921C14.7 11.5017 14.3629 11.6633 14.0032 11.478C13.641 11.2864 13.348 11.4041 13.1797 11.3967C13.0149 11.3804 12.9729 11.2435 12.9324 11.2786C12.8919 11.3138 12.9704 11.4503 13.1899 11.51C13.4067 11.5634 13.5331 11.4339 13.9752 11.6586C14.4172 11.8833 14.6155 11.7056 15.0059 11.9297" stroke="#85340A" stroke-width="0.132"/>
<path d="M16.2311 11.8473L13.1594 10.7102C13.1594 10.7102 13.1017 10.6865 13.0847 10.7238C13.0712 10.7645 13.1255 10.7849 13.1255 10.7849L16.1021 12.1527M15.3079 11.311C15.0024 10.9784 14.6291 10.9987 14.3677 10.6899C14.1064 10.3742 13.7907 10.3708 13.638 10.2996C13.492 10.2215 13.5056 10.0789 13.4547 10.0959C13.4038 10.1129 13.4242 10.269 13.604 10.4082C13.7839 10.5405 13.9502 10.4693 14.2727 10.846C14.5951 11.2228 14.8463 11.1345 15.1212 11.4909" fill="#F6B40E"/>
<path d="M16.2311 11.8473L13.1594 10.7102C13.1594 10.7102 13.1017 10.6865 13.0847 10.7238C13.0712 10.7645 13.1255 10.7849 13.1255 10.7849L16.1021 12.1527M15.3079 11.311C15.0024 10.9784 14.6291 10.9987 14.3677 10.6899C14.1064 10.3742 13.7907 10.3708 13.638 10.2996C13.492 10.2215 13.5056 10.0789 13.4547 10.0959C13.4038 10.1129 13.4242 10.269 13.604 10.4082C13.7839 10.5405 13.9502 10.4693 14.2727 10.846C14.5951 11.2228 14.8463 11.1345 15.1212 11.4909" stroke="#85340A" stroke-width="0.132"/>
<path d="M16.2845 11.8836L13.8818 9.65762C13.8818 9.65762 13.8376 9.61359 13.8076 9.64158C13.7795 9.67402 13.8219 9.71361 13.8219 9.71361L16.0485 12.1164M15.6368 11.0348C15.4819 10.6106 15.1292 10.4866 15.0059 10.1012C14.8852 9.70956 14.5949 9.58563 14.4811 9.46133C14.3761 9.33336 14.4432 9.20685 14.3897 9.20305C14.3362 9.19924 14.2952 9.35128 14.4082 9.54869C14.5237 9.73982 14.7046 9.73762 14.8584 10.2091C15.0121 10.6805 15.2779 10.6951 15.3955 11.1296" fill="#F6B40E"/>
<path d="M16.2845 11.8836L13.8818 9.65762C13.8818 9.65762 13.8376 9.61359 13.8076 9.64158C13.7795 9.67402 13.8219 9.71361 13.8219 9.71361L16.0485 12.1164M15.6368 11.0348C15.4819 10.6106 15.1292 10.4866 15.0059 10.1012C14.8852 9.70956 14.5949 9.58563 14.4811 9.46133C14.3761 9.33336 14.4432 9.20685 14.3897 9.20305C14.3362 9.19924 14.2952 9.35128 14.4082 9.54869C14.5237 9.73982 14.7046 9.73762 14.8584 10.2091C15.0121 10.6805 15.2779 10.6951 15.3955 11.1296" stroke="#85340A" stroke-width="0.132"/>
<path d="M14.9953 12.2064C14.5633 12.2304 14.3713 12.4752 13.9729 12.4272C14.2849 12.5328 14.5297 12.2784 14.9905 12.2928M16.1329 11.9232L14.0881 12.8592L16.1953 12.0768" fill="#85340A"/>
<path d="M15.0054 11.7425C14.5971 11.5993 14.326 11.752 13.9763 11.5552C14.2241 11.7722 14.5477 11.6308 14.9679 11.8205M16.1648 11.9162L13.9174 11.9984L16.1636 12.082" fill="#85340A"/>
<path d="M15.1924 11.3178C14.87 11.0293 14.5611 11.0666 14.3134 10.751C14.4593 11.0463 14.8123 11.0395 15.1279 11.3755M16.1971 11.9219L14.0893 11.1379L16.1326 12.0747" fill="#85340A"/>
<path d="M15.5277 10.9969C15.3402 10.607 15.0405 10.5233 14.9324 10.1369C14.9543 10.4655 15.283 10.5943 15.446 11.0256M16.2247 11.9396L14.5774 10.4086L16.1066 12.056" fill="#85340A"/>
<path d="M16.3203 11.9376L14.9523 8.9616C14.9523 8.9616 14.9283 8.904 14.8899 8.9184C14.8515 8.9376 14.8755 8.9904 14.8755 8.9904L16.0131 12.0624M16.0467 10.9056C16.0659 10.4544 15.7875 10.2048 15.8211 9.8016C15.8595 9.3936 15.6387 9.168 15.5811 9.0096C15.5331 8.8512 15.6435 8.76 15.5955 8.736C15.5475 8.712 15.4515 8.8368 15.4803 9.0624C15.5139 9.2832 15.6819 9.3504 15.6435 9.8448C15.6051 10.3392 15.8451 10.4544 15.7875 10.9008" fill="#F6B40E"/>
<path d="M16.3203 11.9376L14.9523 8.9616C14.9523 8.9616 14.9283 8.904 14.8899 8.9184C14.8515 8.9376 14.8755 8.9904 14.8755 8.9904L16.0131 12.0624M16.0467 10.9056C16.0659 10.4544 15.7875 10.2048 15.8211 9.8016C15.8595 9.3936 15.6387 9.168 15.5811 9.0096C15.5331 8.8512 15.6435 8.76 15.5955 8.736C15.5475 8.712 15.4515 8.8368 15.4803 9.0624C15.5139 9.2832 15.6819 9.3504 15.6435 9.8448C15.6051 10.3392 15.8451 10.4544 15.7875 10.9008" stroke="#85340A" stroke-width="0.132"/>
<path d="M16.3324 12.0011L16.2074 8.72816C16.2074 8.72816 16.2073 8.66575 16.1663 8.66436C16.1235 8.66741 16.1255 8.72537 16.1255 8.72537L16.0009 11.9989M16.4746 10.943C16.665 10.5335 16.5033 10.1963 16.6886 9.83669C16.8802 9.47444 16.7626 9.18152 16.77 9.01313C16.7863 8.84842 16.9232 8.80641 16.888 8.76587C16.8528 8.72533 16.7164 8.80389 16.6567 9.02334C16.6032 9.24019 16.7327 9.36657 16.508 9.80864C16.2833 10.2507 16.461 10.449 16.2369 10.8394" fill="#F6B40E"/>
<path d="M16.3324 12.0011L16.2074 8.72816C16.2074 8.72816 16.2073 8.66576 16.1663 8.66436C16.1235 8.66741 16.1255 8.72537 16.1255 8.72537L16.0009 11.9989M16.4746 10.943C16.665 10.5335 16.5033 10.1963 16.6886 9.83669C16.8802 9.47444 16.7626 9.18152 16.77 9.01313C16.7863 8.84842 16.9232 8.80641 16.888 8.76587C16.8528 8.72533 16.7164 8.80389 16.6567 9.02334C16.6032 9.24019 16.7327 9.36657 16.508 9.80864C16.2833 10.2507 16.461 10.449 16.2369 10.8394" stroke="#85340A" stroke-width="0.132"/>
<path d="M16.3194 12.0645L17.4565 8.99281C17.4565 8.99281 17.4802 8.93511 17.4429 8.91814C17.4022 8.90457 17.3818 8.95887 17.3818 8.95887L16.014 11.9355M16.8557 11.1413C17.1883 10.8358 17.168 10.4625 17.4768 10.2011C17.7925 9.93977 17.7959 9.62412 17.8672 9.47138C17.9452 9.32544 18.0878 9.33901 18.0708 9.2881C18.0538 9.23719 17.8977 9.25755 17.7586 9.43744C17.6262 9.61733 17.6975 9.78364 17.3207 10.1061C16.944 10.4285 17.0322 10.6797 16.6758 10.9546" fill="#F6B40E"/>
<path d="M16.3194 12.0645L17.4565 8.99281C17.4565 8.99281 17.4802 8.93511 17.4429 8.91814C17.4022 8.90457 17.3818 8.95887 17.3818 8.95887L16.014 11.9355M16.8557 11.1413C17.1883 10.8358 17.168 10.4625 17.4768 10.2011C17.7925 9.93977 17.7959 9.62412 17.8672 9.47138C17.9452 9.32544 18.0878 9.33901 18.0708 9.2881C18.0538 9.23719 17.8977 9.25755 17.7586 9.43744C17.6262 9.61733 17.6975 9.78364 17.3207 10.1061C16.944 10.4285 17.0322 10.6797 16.6758 10.9546" stroke="#85340A" stroke-width="0.132"/>
<path d="M16.283 12.118L18.509 9.71529C18.509 9.71529 18.553 9.67108 18.525 9.64111C18.4926 9.61298 18.453 9.65536 18.453 9.65536L16.0502 11.882M17.1318 11.4703C17.556 11.3154 17.68 10.9627 18.0654 10.8394C18.457 10.7188 18.581 10.4284 18.7053 10.3146C18.8332 10.2096 18.9597 10.2767 18.9635 10.2232C18.9674 10.1697 18.8153 10.1287 18.6179 10.2417C18.4268 10.3572 18.429 10.5381 17.9575 10.6919C17.4861 10.8456 17.4715 11.1114 17.037 11.229" fill="#F6B40E"/>
<path d="M16.283 12.118L18.509 9.71529C18.509 9.71529 18.553 9.67108 18.525 9.64111C18.4926 9.61298 18.453 9.65536 18.453 9.65536L16.0502 11.882M17.1318 11.4703C17.556 11.3154 17.68 10.9627 18.0654 10.8394C18.457 10.7188 18.581 10.4284 18.7053 10.3146C18.8332 10.2096 18.9597 10.2767 18.9635 10.2232C18.9674 10.1697 18.8153 10.1287 18.6179 10.2417C18.4268 10.3572 18.429 10.5381 17.9575 10.6919C17.4861 10.8456 17.4715 11.1114 17.037 11.229" stroke="#85340A" stroke-width="0.132"/>
<path d="M15.9602 10.8288C15.9362 10.3968 15.6914 10.2048 15.7394 9.8064C15.6338 10.1184 15.8882 10.3632 15.8738 10.824M16.2434 11.9664L15.3074 9.9216L16.0898 12.0288" fill="#85340A"/>
<path d="M16.4241 10.839C16.5673 10.4307 16.4146 10.1596 16.6114 9.8099C16.3944 10.0577 16.5358 10.3813 16.3462 10.8015M16.2504 11.9983L16.1682 9.75101L16.0847 11.9972" fill="#85340A"/>
<path d="M16.849 11.0259C17.1375 10.7034 17.1001 10.3946 17.4158 10.1468C17.1205 10.2928 17.1273 10.6457 16.7913 10.9614M16.2448 12.0305L17.0288 9.9228L16.0921 11.9661" fill="#85340A"/>
<path d="M17.1697 11.3611C17.5596 11.1736 17.6433 10.874 18.0298 10.7659C17.7011 10.7877 17.5723 11.1164 17.1411 11.2795M16.2271 12.0581L17.758 10.4108L16.1107 11.9401" fill="#85340A"/>
<path d="M16.2288 12.1536L19.2048 10.7856C19.2048 10.7856 19.2624 10.7616 19.248 10.7232C19.2288 10.6848 19.176 10.7088 19.176 10.7088L16.104 11.8464M17.2608 11.88C17.712 11.8992 17.9616 11.6208 18.3648 11.6544C18.7728 11.6928 18.9984 11.472 19.1568 11.4144C19.3152 11.3664 19.4064 11.4768 19.4304 11.4288C19.4544 11.3808 19.3296 11.2848 19.104 11.3136C18.8832 11.3472 18.816 11.5152 18.3216 11.4768C17.8272 11.4384 17.712 11.6784 17.2656 11.6208" fill="#F6B40E"/>
<path d="M16.2288 12.1536L19.2048 10.7856C19.2048 10.7856 19.2624 10.7616 19.248 10.7232C19.2288 10.6848 19.176 10.7088 19.176 10.7088L16.104 11.8464M17.2608 11.88C17.712 11.8992 17.9616 11.6208 18.3648 11.6544C18.7728 11.6928 18.9984 11.472 19.1568 11.4144C19.3152 11.3664 19.4064 11.4768 19.4304 11.4288C19.4544 11.3808 19.3296 11.2848 19.104 11.3136C18.8832 11.3472 18.816 11.5152 18.3216 11.4768C17.8272 11.4384 17.712 11.6784 17.2656 11.6208" stroke="#85340A" stroke-width="0.132"/>
<path d="M16.1653 12.1658L19.4383 12.0408C19.4383 12.0408 19.5007 12.0407 19.5021 11.9997C19.4991 11.9568 19.4411 11.9588 19.4411 11.9588L16.1676 11.8342M17.2235 12.3079C17.633 12.4983 17.9701 12.3367 18.3298 12.522C18.692 12.7136 18.985 12.5959 19.1533 12.6033C19.3181 12.6196 19.3601 12.7565 19.4006 12.7214C19.4412 12.6862 19.3626 12.5497 19.1431 12.49C18.9263 12.4366 18.7999 12.5661 18.3578 12.3414C17.9158 12.1167 17.7175 12.2944 17.3271 12.0703" fill="#F6B40E"/>
<path d="M16.1653 12.1658L19.4383 12.0408C19.4383 12.0408 19.5007 12.0407 19.5021 11.9997C19.4991 11.9568 19.4411 11.9588 19.4411 11.9588L16.1676 11.8342M17.2235 12.3079C17.633 12.4983 17.9701 12.3367 18.3298 12.522C18.692 12.7136 18.985 12.5959 19.1533 12.6033C19.3181 12.6196 19.3601 12.7565 19.4006 12.7214C19.4412 12.6862 19.3626 12.5497 19.1431 12.49C18.9263 12.4366 18.7999 12.5661 18.3578 12.3414C17.9158 12.1167 17.7175 12.2944 17.3271 12.0703" stroke="#85340A" stroke-width="0.132"/>
<path d="M16.1019 12.1527L19.1736 13.2898C19.1736 13.2898 19.2313 13.3135 19.2483 13.2762C19.2618 13.2355 19.2075 13.2151 19.2075 13.2151L16.2309 11.8473M17.0251 12.689C17.3306 13.0216 17.7039 13.0013 17.9653 13.3101C18.2266 13.6258 18.5423 13.6292 18.695 13.7004C18.841 13.7785 18.8274 13.9211 18.8783 13.9041C18.9292 13.8871 18.9089 13.731 18.729 13.5918C18.5491 13.4595 18.3828 13.5307 18.0603 13.154C17.7379 12.7772 17.4867 12.8655 17.2118 12.5091" fill="#F6B40E"/>
<path d="M16.1019 12.1527L19.1736 13.2898C19.1736 13.2898 19.2313 13.3135 19.2483 13.2762C19.2618 13.2355 19.2075 13.2151 19.2075 13.2151L16.2309 11.8473M17.0251 12.689C17.3306 13.0216 17.7039 13.0013 17.9653 13.3101C18.2266 13.6258 18.5423 13.6292 18.695 13.7004C18.841 13.7785 18.8274 13.9211 18.8783 13.9041C18.9292 13.8871 18.9089 13.731 18.729 13.5918C18.5491 13.4595 18.3828 13.5307 18.0603 13.154C17.7379 12.7772 17.4867 12.8655 17.2118 12.5091" stroke="#85340A" stroke-width="0.132"/>
<path d="M16.0485 12.1164L18.4512 14.3424C18.4512 14.3424 18.4954 14.3864 18.5254 14.3584C18.5535 14.326 18.5112 14.2864 18.5112 14.2864L16.2845 11.8836M16.6962 12.9652C16.8511 13.3894 17.2038 13.5134 17.3271 13.8988C17.4478 14.2904 17.7381 14.4144 17.8519 14.5387C17.9569 14.6666 17.8898 14.7931 17.9433 14.797C17.9968 14.8008 18.0378 14.6487 17.9248 14.4513C17.8093 14.2602 17.6284 14.2624 17.4747 13.7909C17.3209 13.3195 17.0551 13.3049 16.9375 12.8704" fill="#F6B40E"/>
<path d="M16.0485 12.1164L18.4512 14.3424C18.4512 14.3424 18.4954 14.3864 18.5254 14.3584C18.5535 14.326 18.5112 14.2864 18.5112 14.2864L16.2845 11.8836M16.6962 12.9652C16.8511 13.3894 17.2038 13.5134 17.3271 13.8988C17.4478 14.2904 17.7381 14.4144 17.8519 14.5387C17.9569 14.6666 17.8898 14.7931 17.9433 14.797C17.9968 14.8008 18.0378 14.6487 17.9248 14.4513C17.8093 14.2602 17.6284 14.2624 17.4747 13.7909C17.3209 13.3195 17.0551 13.3049 16.9375 12.8704" stroke="#85340A" stroke-width="0.132"/>
<path d="M17.3377 11.7936C17.7697 11.7696 17.9617 11.5248 18.3601 11.5728C18.0481 11.4672 17.8033 11.7216 17.3425 11.7072M16.2001 12.0768L18.2449 11.1408L16.1377 11.9232" fill="#85340A"/>
<path d="M17.3276 12.2575C17.7359 12.4007 18.007 12.248 18.3567 12.4448C18.1089 12.2278 17.7853 12.3692 17.3651 12.1795M16.1682 12.0838L18.4156 12.0016L16.1694 11.918" fill="#85340A"/>
<path d="M17.1406 12.6822C17.463 12.9707 17.7719 12.9334 18.0197 13.249C17.8737 12.9537 17.5207 12.9605 17.2051 12.6245M16.1359 12.0781L18.2437 12.8621L16.2004 11.9253" fill="#85340A"/>
<path d="M16.8053 13.0031C16.9928 13.393 17.2925 13.4767 17.4006 13.8631C17.3787 13.5345 17.05 13.4057 16.887 12.9744M16.1084 12.0604L17.7556 13.5914L16.2264 11.944" fill="#85340A"/>
<path d="M16.1665 13.335C16.9038 13.335 17.5015 12.7373 17.5015 12C17.5015 11.2627 16.9038 10.665 16.1665 10.665C15.4292 10.665 14.8315 11.2627 14.8315 12C14.8315 12.7373 15.4292 13.335 16.1665 13.335Z" fill="#F6B40E" stroke="#85340A" stroke-width="0.175"/>
<path d="M16.6216 11.715C16.5316 11.715 16.4416 11.755 16.3916 11.835C16.4916 11.93 16.7216 11.935 16.8766 11.825C16.8439 11.7902 16.8043 11.7625 16.7605 11.7436C16.7166 11.7247 16.6694 11.715 16.6216 11.715ZM16.6216 11.735C16.7066 11.735 16.7916 11.775 16.8016 11.815C16.7016 11.93 16.5366 11.915 16.4316 11.835C16.4517 11.8031 16.4799 11.7771 16.5132 11.7596C16.5466 11.742 16.5839 11.7336 16.6216 11.735Z" fill="#843511"/>
<path d="M16.6365 11.65C16.5015 11.65 16.4715 11.685 16.4115 11.735C16.3515 11.785 16.3165 11.775 16.3115 11.785C16.2965 11.795 16.3115 11.825 16.3265 11.815C16.3515 11.805 16.3915 11.785 16.4515 11.735C16.5115 11.685 16.5765 11.685 16.6365 11.685C16.8215 11.685 16.9215 11.835 16.9465 11.825C16.9615 11.815 16.8415 11.65 16.6365 11.65Z" fill="#85340A"/>
<path d="M17.0066 11.715C16.7716 11.51 16.4716 11.475 16.3066 11.63C16.2679 11.6814 16.2421 11.7415 16.2316 11.805C16.2116 11.92 16.2466 12.045 16.3366 12.175L16.2966 12.195C16.2181 12.0517 16.1899 11.8862 16.2166 11.725C16.2231 11.6858 16.2332 11.6474 16.2466 11.61C16.4716 11.425 16.7816 11.41 17.0066 11.71V11.715Z" fill="#85340A"/>
<path d="M16.6165 11.91C16.669 11.91 16.7115 11.8675 16.7115 11.815C16.7115 11.7625 16.669 11.72 16.6165 11.72C16.564 11.72 16.5215 11.7625 16.5215 11.815C16.5215 11.8675 16.564 11.91 16.6165 11.91Z" fill="#85340A"/>
<path d="M16.8816 11.875C16.7066 12.01 16.5316 12 16.4316 11.94C16.3316 11.875 16.3316 11.855 16.3516 11.855C16.3716 11.855 16.3916 11.875 16.4716 11.92C16.5566 11.96 16.6766 11.96 16.8816 11.875Z" fill="#85340A"/>
<path d="M15.9664 12.185C15.9504 12.1866 15.935 12.1923 15.9218 12.2015C15.9085 12.2107 15.8978 12.2231 15.8907 12.2376C15.8836 12.252 15.8803 12.2681 15.8811 12.2842C15.8818 12.3003 15.8867 12.3159 15.8952 12.3296C15.9037 12.3433 15.9156 12.3546 15.9297 12.3625C15.9437 12.3703 15.9596 12.3745 15.9757 12.3745C15.9918 12.3746 16.0077 12.3705 16.0218 12.3627C16.0359 12.3549 16.0478 12.3437 16.0564 12.33C16.0894 12.3505 16.1276 12.3609 16.1664 12.36H16.1764C16.2169 12.3622 16.2571 12.3517 16.2914 12.33C16.3007 12.3427 16.3129 12.3529 16.327 12.3597C16.3412 12.3665 16.3568 12.3697 16.3724 12.369C16.3881 12.3683 16.4034 12.3637 16.4168 12.3557C16.4303 12.3477 16.4416 12.3364 16.4497 12.323C16.4577 12.3095 16.4624 12.2943 16.4631 12.2786C16.4639 12.2629 16.4607 12.2473 16.4539 12.2331C16.4472 12.219 16.437 12.2067 16.4244 12.1974C16.4117 12.1882 16.397 12.1822 16.3814 12.18C16.4064 12.195 16.4214 12.215 16.4214 12.245C16.4214 12.275 16.3964 12.305 16.3614 12.305C16.3455 12.305 16.3302 12.2987 16.319 12.2874C16.3077 12.2762 16.3014 12.2609 16.3014 12.245C16.2896 12.2697 16.2712 12.2907 16.2483 12.3056C16.2254 12.3206 16.1988 12.329 16.1714 12.33C16.1449 12.3282 16.1194 12.3193 16.0974 12.3044C16.0755 12.2895 16.0579 12.269 16.0464 12.245C16.0464 12.2533 16.0447 12.2616 16.0414 12.2692C16.0381 12.2768 16.0332 12.2837 16.0271 12.2893C16.021 12.2949 16.0138 12.2992 16.0059 12.302C15.998 12.3047 15.9897 12.3057 15.9814 12.305C15.9514 12.305 15.9214 12.275 15.9214 12.245C15.9214 12.215 15.9364 12.195 15.9614 12.185H15.9664ZM16.0664 12.46C15.9614 12.46 15.9164 12.55 15.8264 12.61C15.8764 12.59 15.9214 12.55 15.9914 12.51C16.0614 12.47 16.1264 12.52 16.1664 12.52C16.2064 12.52 16.2664 12.47 16.3414 12.51C16.4114 12.55 16.4564 12.59 16.5064 12.61C16.4114 12.55 16.3714 12.46 16.2664 12.46C16.2315 12.4635 16.1975 12.4737 16.1664 12.49C16.1357 12.472 16.1017 12.4601 16.0664 12.455V12.46Z" fill="#85340A"/>
<path d="M16.0264 12.58C15.9864 12.58 15.9364 12.59 15.8564 12.61C16.0414 12.57 16.0814 12.635 16.1664 12.635C16.2464 12.635 16.2864 12.57 16.4714 12.61C16.2714 12.55 16.2264 12.59 16.1664 12.59C16.1264 12.59 16.0964 12.575 16.0264 12.58Z" fill="#85340A"/>
<path d="M15.8664 12.61H15.8264C16.0414 12.635 15.9414 12.76 16.1664 12.76C16.3914 12.76 16.2914 12.635 16.5064 12.61C16.2814 12.59 16.3514 12.725 16.1664 12.725C15.9914 12.725 16.0464 12.61 15.8664 12.61ZM16.3514 12.945C16.3514 12.8959 16.3319 12.8489 16.2972 12.8142C16.2625 12.7795 16.2155 12.76 16.1664 12.76C16.1174 12.76 16.0703 12.7795 16.0356 12.8142C16.0009 12.8489 15.9814 12.8959 15.9814 12.945C15.9912 12.9033 16.0148 12.8661 16.0484 12.8394C16.0819 12.8128 16.1236 12.7983 16.1664 12.7983C16.2093 12.7983 16.2509 12.8128 16.2845 12.8394C16.3181 12.8661 16.3416 12.9033 16.3514 12.945Z" fill="#85340A"/>
<path d="M15.3364 11.715C15.5714 11.51 15.8714 11.475 16.0364 11.63C16.0751 11.6814 16.1009 11.7415 16.1114 11.805C16.1314 11.92 16.0964 12.045 16.0064 12.175L16.0464 12.195C16.1249 12.0517 16.1531 11.8862 16.1264 11.725C16.1199 11.6858 16.1098 11.6474 16.0964 11.61C15.8714 11.425 15.5614 11.41 15.3364 11.71V11.715Z" fill="#85340A"/>
<path d="M15.7065 11.65C15.8415 11.65 15.8715 11.685 15.9315 11.735C15.9915 11.785 16.0265 11.775 16.0315 11.785C16.0465 11.795 16.0315 11.825 16.0165 11.815C15.9915 11.805 15.9515 11.785 15.8915 11.735C15.8315 11.685 15.7665 11.685 15.7065 11.685C15.5215 11.685 15.4215 11.835 15.3965 11.825C15.3815 11.815 15.5015 11.65 15.7065 11.65Z" fill="#85340A"/>
<path d="M15.7014 11.715C15.6114 11.715 15.5214 11.755 15.4714 11.835C15.5714 11.93 15.8014 11.935 15.9564 11.825C15.9237 11.7902 15.8842 11.7625 15.8403 11.7436C15.7965 11.7247 15.7492 11.715 15.7014 11.715ZM15.7014 11.735C15.7864 11.735 15.8714 11.775 15.8814 11.815C15.7814 11.93 15.6164 11.915 15.5114 11.835C15.5316 11.8031 15.5597 11.7771 15.5931 11.7596C15.6264 11.742 15.6638 11.7336 15.7014 11.735Z" fill="#843511"/>
<path d="M15.7115 11.91C15.7639 11.91 15.8065 11.8675 15.8065 11.815C15.8065 11.7625 15.7639 11.72 15.7115 11.72C15.659 11.72 15.6165 11.7625 15.6165 11.815C15.6165 11.8675 15.659 11.91 15.7115 11.91Z" fill="#85340A"/>
<path d="M15.4614 11.875C15.6364 12.01 15.8114 12 15.9114 11.94C16.0114 11.875 16.0114 11.855 15.9914 11.855C15.9714 11.855 15.9514 11.875 15.8714 11.92C15.7864 11.96 15.6664 11.96 15.4614 11.875Z" fill="#85340A"/>
</g>
<defs>
<clipPath id="clip0_36_793">
<rect width="32" height="24" fill="white" transform="translate(0.166504)"/>
</clipPath>
</defs>
</svg>
