<svg width="41" height="32" viewBox="0 0 41 32" fill="none" xmlns="http://www.w3.org/2000/svg">
<g filter="url(#filter0_d_36_758)">
<path fill-rule="evenodd" clip-rule="evenodd" d="M4.83325 0H36.8333V24H4.83325V0Z" fill="#229E45"/>
<path fill-rule="evenodd" clip-rule="evenodd" d="M20.9032 21.8L35.9782 12.015L20.8132 2.2L5.68823 12.035L20.9032 21.8Z" fill="#F8E509"/>
<path fill-rule="evenodd" clip-rule="evenodd" d="M27.4732 12C27.4732 15.515 24.6182 18.365 21.0932 18.365C19.8335 18.363 18.6027 17.9876 17.5564 17.2863C16.5101 16.5849 15.6952 15.589 15.2147 14.4246C14.7343 13.2602 14.6098 11.9795 14.8571 10.7443C15.1045 9.50918 15.7124 8.3751 16.6042 7.48544C17.4959 6.59578 18.6315 5.99049 19.8672 5.74607C21.1029 5.50166 22.3833 5.6291 23.5466 6.11229C24.7099 6.59548 25.7038 7.41272 26.4027 8.4607C27.1016 9.50868 27.4741 10.7403 27.4732 12Z" fill="#2B49A3"/>
<path fill-rule="evenodd" clip-rule="evenodd" d="M18.9984 15.815L18.7984 15.7L18.5984 15.8L18.6434 15.575L18.4834 15.405L18.7084 15.38L18.8184 15.18L18.9134 15.39L19.1334 15.43L18.9684 15.58M23.2684 16.895L23.0734 16.78L22.8734 16.88L22.9134 16.655L22.7584 16.49L22.9834 16.465L23.0884 16.26L23.1884 16.47L23.4084 16.51L23.2384 16.665M21.4284 15.165L21.2584 15.065L21.0834 15.155L21.1234 14.96L20.9834 14.815L21.1834 14.795L21.2734 14.615L21.3534 14.8L21.5484 14.835L21.3984 14.97M25.7484 14.545L25.5784 14.445L25.4034 14.535L25.4434 14.34L25.3084 14.2L25.5034 14.18L25.5934 14.005L25.6734 14.185L25.8634 14.22L25.7184 14.35M21.3534 13.25L21.1534 13.14L20.9534 13.24L20.9934 13.01L20.8384 12.845L21.0634 12.82L21.1684 12.615L21.2684 12.825L21.4884 12.865L21.3184 13.025M16.0884 11.275L15.8884 11.165L15.6884 11.265L15.7384 11.035L15.5734 10.87L15.8034 10.845L15.9034 10.64L16.0034 10.85L16.2234 10.89L16.0584 11.045M16.7234 13.905L16.5234 13.79L16.3234 13.89L16.3684 13.665L16.2084 13.5L16.4334 13.47L16.5384 13.27L16.6384 13.48L16.8584 13.52L16.6934 13.675M23.2934 10.31L23.1134 10.21L22.9334 10.3L22.9734 10.1L22.8334 9.95L23.0334 9.925L23.1284 9.745L23.2134 9.935L23.4134 9.97L23.2634 10.105M22.9284 12.02L22.7934 11.94L22.6484 12.01L22.6784 11.85L22.5684 11.735L22.7284 11.715L22.8034 11.575L22.8684 11.725L23.0184 11.75L22.9084 11.86M15.7984 14.38L15.6634 14.305L15.5284 14.37L15.5584 14.22L15.4534 14.11L15.6034 14.09L15.6734 13.955L15.7384 14.095L15.8884 14.125L15.7734 14.225M25.7834 14.99L25.6734 14.935L25.5634 14.985L25.5884 14.87L25.5034 14.79L25.6234 14.775L25.6834 14.675L25.7334 14.775L25.8584 14.8L25.7634 14.875" fill="#FFFFEF"/>
<path fill-rule="evenodd" clip-rule="evenodd" d="M15.7984 14.38L15.6634 14.305L15.5284 14.37L15.5584 14.22L15.4534 14.11L15.6034 14.09L15.6734 13.955L15.7384 14.095L15.8884 14.125L15.7734 14.225" fill="#FFFFEF"/>
<path fill-rule="evenodd" clip-rule="evenodd" d="M15.7984 14.38L15.6634 14.305L15.5284 14.37L15.5584 14.22L15.4534 14.11L15.6034 14.09L15.6734 13.955L15.7384 14.095L15.8884 14.125L15.7734 14.225M17.8884 14.375L17.7584 14.305L17.6234 14.37L17.6534 14.22L17.5484 14.11L17.6984 14.09L17.7684 13.955L17.8334 14.095L17.9834 14.12L17.8684 14.225M17.6284 15.075L17.4984 15L17.3634 15.07L17.3934 14.92L17.2884 14.805L17.4384 14.785L17.5084 14.65L17.5734 14.79L17.7234 14.82L17.6084 14.92M21.9784 13.81L21.8484 13.73L21.7084 13.8L21.7384 13.65L21.6384 13.535L21.7884 13.52L21.8584 13.385L21.9184 13.525L22.0684 13.55L21.9584 13.655M20.7034 13.805L20.5684 13.73L20.4334 13.8L20.4634 13.65L20.3634 13.535L20.5134 13.52L20.5834 13.38L20.6434 13.525L20.7934 13.55L20.6834 13.655M17.2434 13.365L17.1584 13.315L17.0734 13.355L17.0934 13.26L17.0284 13.19L17.1234 13.18L17.1634 13.095L17.2034 13.185L17.2984 13.2L17.2284 13.265M25.6184 15.535L25.4884 15.46L25.3534 15.53L25.3834 15.38L25.2784 15.265L25.4284 15.245L25.4984 15.11L25.5634 15.25L25.7134 15.28L25.5984 15.38M24.5584 15.68L24.4484 15.61L24.3334 15.67L24.3584 15.54L24.2734 15.45L24.3984 15.435L24.4584 15.32L24.5084 15.44L24.6334 15.46L24.5384 15.55M25.0584 15.665L24.9584 15.605L24.8534 15.655L24.8734 15.54L24.7934 15.455L24.9084 15.44L24.9634 15.34L25.0134 15.44L25.1284 15.465L25.0434 15.545M26.4984 14.405L26.3984 14.355L26.2984 14.405L26.3234 14.29L26.2434 14.205L26.3584 14.19L26.4084 14.09L26.4584 14.195L26.5634 14.215L26.4834 14.295M24.5434 16.385L24.4184 16.315L24.2834 16.375L24.3134 16.235L24.2134 16.135L24.3634 16.12L24.4284 15.995L24.4884 16.125L24.6384 16.15L24.5234 16.245M24.5534 16.955L24.4334 16.885L24.3134 16.95L24.3434 16.81L24.2484 16.71L24.3834 16.69L24.4434 16.565L24.4984 16.695L24.6334 16.72L24.5334 16.82M23.5834 15.665L23.4884 15.605L23.3884 15.655L23.4084 15.545L23.3334 15.46L23.4434 15.45L23.4934 15.35L23.5434 15.45L23.6534 15.47L23.5734 15.55M22.6834 15.665L22.5834 15.605L22.4834 15.655L22.5084 15.545L22.4284 15.46L22.5434 15.45L22.5934 15.35L22.6434 15.45L22.7484 15.47L22.6684 15.55M21.1484 14.32L21.0484 14.265L20.9484 14.315L20.9734 14.2L20.8934 14.12L21.0034 14.105L21.0534 14.005L21.1034 14.105L21.2134 14.13L21.1334 14.205M21.3184 17.055L21.2384 17.01L21.1484 17.055L21.1684 16.955L21.1034 16.885L21.1984 16.875L21.2434 16.79L21.2834 16.88L21.3784 16.895L21.3084 16.96M18.9984 12.63L18.7984 12.515L18.5984 12.615L18.6434 12.39L18.4834 12.225L18.7084 12.195L18.8184 11.995L18.9134 12.205L19.1334 12.245L18.9684 12.4" fill="#FFFFEF"/>
<path fill-rule="evenodd" clip-rule="evenodd" d="M27.0532 14.29C27.177 13.9686 27.274 13.6375 27.3432 13.3C23.9532 10.325 20.1782 8.8 15.4082 9.115C15.2352 9.44976 15.0929 9.79952 14.9832 10.16C20.6332 9.62 24.7832 12.12 27.0532 14.29Z" fill="white"/>
<path d="M25.5332 12.62L25.6482 12.685C25.631 12.719 25.6257 12.7577 25.6332 12.795C25.6449 12.8312 25.6699 12.8616 25.7032 12.88C25.7382 12.905 25.7732 12.92 25.8032 12.915C25.8332 12.915 25.8532 12.9 25.8682 12.88C25.8769 12.8667 25.8804 12.8507 25.8782 12.835C25.8741 12.8165 25.8655 12.7994 25.8532 12.785C25.8432 12.77 25.8182 12.735 25.7782 12.695C25.7371 12.6526 25.7063 12.6012 25.6882 12.545C25.6757 12.5024 25.6789 12.4568 25.6973 12.4164C25.7156 12.376 25.7479 12.3436 25.7882 12.325C25.8245 12.3098 25.8647 12.3063 25.9032 12.315C25.9502 12.3258 25.9944 12.3463 26.0332 12.375C26.1032 12.425 26.1482 12.475 26.1632 12.535C26.1701 12.5631 26.171 12.5923 26.1658 12.6207C26.1606 12.6491 26.1495 12.6762 26.1332 12.7L26.0132 12.625C26.0282 12.595 26.0332 12.565 26.0232 12.54C26.0182 12.515 25.9982 12.49 25.9632 12.47C25.9375 12.4493 25.9061 12.4371 25.8732 12.435C25.8641 12.4347 25.8551 12.4369 25.8472 12.4413C25.8393 12.4457 25.8327 12.4521 25.8282 12.46C25.8182 12.475 25.8182 12.49 25.8232 12.51C25.8282 12.53 25.8532 12.57 25.9032 12.62C25.9532 12.67 25.9832 12.715 26.0032 12.745C26.021 12.7778 26.0291 12.815 26.0264 12.8522C26.0238 12.8894 26.0105 12.9251 25.9882 12.955C25.9648 12.989 25.9317 13.0151 25.8932 13.03C25.8557 13.0473 25.8138 13.0525 25.7732 13.045C25.7282 13.035 25.6832 13.015 25.6332 12.98C25.5582 12.93 25.5132 12.875 25.4982 12.815C25.4819 12.747 25.4926 12.6753 25.5282 12.615L25.5332 12.62ZM24.9532 12.24L25.0782 12.305C25.0627 12.3395 25.0592 12.3782 25.0682 12.415C25.0809 12.4493 25.1058 12.4778 25.1382 12.495C25.1782 12.52 25.2082 12.53 25.2382 12.525C25.2682 12.525 25.2882 12.51 25.3032 12.485C25.3107 12.4731 25.3143 12.4591 25.3132 12.445C25.3132 12.43 25.3032 12.41 25.2882 12.395C25.2625 12.3641 25.2359 12.3341 25.2082 12.305C25.1532 12.25 25.1182 12.205 25.1082 12.165C25.1 12.1393 25.0975 12.1121 25.101 12.0853C25.1044 12.0585 25.1137 12.0328 25.1282 12.01C25.1472 11.9791 25.1751 11.9548 25.2082 11.94C25.2425 11.9242 25.2808 11.9189 25.3182 11.925C25.3644 11.9328 25.4086 11.9498 25.4482 11.975C25.5232 12.025 25.5682 12.075 25.5832 12.13C25.5923 12.1581 25.5952 12.1878 25.5918 12.2172C25.5883 12.2465 25.5786 12.2748 25.5632 12.3L25.4382 12.23C25.4532 12.195 25.4582 12.17 25.4482 12.145C25.4382 12.12 25.4182 12.095 25.3832 12.075C25.3555 12.0551 25.3222 12.0446 25.2882 12.045C25.28 12.0456 25.272 12.0481 25.265 12.0525C25.2581 12.0569 25.2523 12.0629 25.2482 12.07C25.2382 12.085 25.2382 12.1 25.2432 12.12C25.2482 12.14 25.2782 12.18 25.3282 12.23C25.3782 12.28 25.4132 12.32 25.4282 12.35C25.4482 12.3814 25.4588 12.4178 25.4588 12.455C25.4588 12.4922 25.4482 12.5286 25.4282 12.56C25.4066 12.5949 25.3753 12.6227 25.3382 12.64C25.3007 12.6573 25.2588 12.6625 25.2182 12.655C25.1667 12.6463 25.1174 12.6276 25.0732 12.6C25.0085 12.5655 24.9587 12.5086 24.9332 12.44C24.9138 12.3732 24.921 12.3016 24.9532 12.24ZM24.2432 12.05L24.6082 11.45L25.0482 11.725L24.9882 11.825L24.6682 11.625L24.5882 11.76L24.8882 11.945L24.8232 12.045L24.5232 11.86L24.4232 12.025L24.7582 12.225L24.6982 12.325L24.2482 12.05H24.2432ZM23.2082 11.2L23.2632 11.1L23.5332 11.235L23.4082 11.485C23.3682 11.495 23.3182 11.5 23.2582 11.495C23.2006 11.4887 23.1446 11.4717 23.0932 11.445C23.0327 11.4155 22.9809 11.3707 22.9432 11.315C22.9088 11.2633 22.8913 11.2021 22.8932 11.14C22.8957 11.0754 22.9128 11.0121 22.9432 10.955C22.9732 10.8949 23.0179 10.8433 23.0732 10.805C23.126 10.7685 23.1889 10.7492 23.2532 10.75C23.3032 10.75 23.3532 10.765 23.4132 10.8C23.4932 10.835 23.5432 10.885 23.5682 10.94C23.5942 10.9946 23.5995 11.0568 23.5832 11.115L23.4482 11.075C23.4564 11.0415 23.4529 11.0062 23.4382 10.975C23.4232 10.945 23.3982 10.925 23.3582 10.905C23.3349 10.8917 23.309 10.8835 23.2823 10.8809C23.2556 10.8783 23.2286 10.8814 23.2032 10.89C23.1532 10.905 23.1082 10.95 23.0732 11.02C23.0382 11.09 23.0232 11.155 23.0382 11.21C23.0451 11.2361 23.0576 11.2603 23.0749 11.2811C23.0922 11.3018 23.1138 11.3185 23.1382 11.33C23.1632 11.345 23.1932 11.355 23.2232 11.355C23.253 11.3595 23.2833 11.3595 23.3132 11.355L23.3532 11.275L23.2082 11.2ZM18.6982 10.085L18.7982 9.385L19.0082 9.42L19.0632 9.91L19.2582 9.46L19.4682 9.49L19.3682 10.18L19.2332 10.16L19.3182 9.615L19.0982 10.14L18.9632 10.12L18.9082 9.555L18.8282 10.105L18.6982 10.085ZM17.9932 10L18.0582 9.3L18.5732 9.35L18.5632 9.47L18.1882 9.435L18.1732 9.585L18.5232 9.62L18.5082 9.74L18.1582 9.705L18.1432 9.895L18.5332 9.93L18.5232 10.05L17.9932 10Z" fill="#9E3030"/>
<path d="M15.6582 9.565C15.6582 9.49 15.6732 9.435 15.6932 9.385C15.7107 9.34944 15.7344 9.31728 15.7632 9.29C15.7888 9.26414 15.8194 9.24373 15.8532 9.23C15.9032 9.215 15.9532 9.205 16.0032 9.205C16.1082 9.205 16.1882 9.245 16.2532 9.305C16.2841 9.34322 16.3071 9.38723 16.3209 9.43445C16.3346 9.48167 16.3388 9.53115 16.3332 9.58C16.3332 9.69 16.2982 9.78 16.2332 9.845C16.1998 9.87587 16.1603 9.89939 16.1172 9.91404C16.0741 9.92868 16.0285 9.93412 15.9832 9.93C15.9385 9.93045 15.8942 9.92182 15.8529 9.90463C15.8117 9.88744 15.7743 9.86205 15.7432 9.83C15.681 9.75636 15.6504 9.66109 15.6582 9.565Z" fill="#9E3030"/>
<path d="M15.8032 9.56501C15.8032 9.64001 15.8182 9.7 15.8532 9.745C15.8882 9.785 15.9332 9.81 15.9932 9.81C16.0192 9.81182 16.0452 9.80783 16.0694 9.79831C16.0937 9.7888 16.1154 9.774 16.1332 9.75501C16.1682 9.71501 16.1832 9.655 16.1882 9.57C16.1882 9.49 16.1782 9.43001 16.1382 9.39001C16.1219 9.36985 16.1014 9.35357 16.078 9.34233C16.0547 9.33109 16.0291 9.32517 16.0032 9.32501C15.9769 9.32416 15.9508 9.3291 15.9266 9.33947C15.9024 9.34983 15.8808 9.36538 15.8632 9.385C15.8232 9.425 15.8082 9.48501 15.8032 9.56501Z" fill="#F7FFFF"/>
<path d="M16.4832 9.925L16.4932 9.225H16.7932C16.8682 9.225 16.9182 9.235 16.9532 9.25C16.9882 9.26 17.0132 9.285 17.0332 9.315C17.0532 9.345 17.0632 9.385 17.0632 9.43C17.0635 9.4781 17.0457 9.52456 17.0132 9.56C16.9762 9.59462 16.9286 9.61576 16.8782 9.62L16.9532 9.68C16.9732 9.7 16.9982 9.74 17.0282 9.795L17.1132 9.935H16.9432L16.8432 9.775L16.7732 9.675C16.761 9.66124 16.7455 9.6509 16.7282 9.645C16.7054 9.63837 16.6818 9.635 16.6582 9.635H16.6282V9.925H16.4832Z" fill="#9E3030"/>
<path d="M16.6331 9.525H16.7331C16.8031 9.525 16.8481 9.525 16.8631 9.515C16.8781 9.515 16.8931 9.5 16.9031 9.49C16.9131 9.48 16.9181 9.455 16.9181 9.44C16.9181 9.41 16.9131 9.39 16.8981 9.38C16.8881 9.365 16.8681 9.355 16.8481 9.35H16.7481L16.6331 9.345V9.52V9.525Z" fill="white"/>
<path d="M17.2833 9.26L17.5433 9.275C17.5983 9.275 17.6433 9.28 17.6733 9.29C17.7122 9.30412 17.7467 9.32827 17.7733 9.36C17.8021 9.39496 17.8226 9.43599 17.8333 9.48C17.8483 9.525 17.8533 9.58 17.8483 9.645C17.8482 9.69604 17.8398 9.74671 17.8233 9.795C17.8033 9.845 17.7733 9.885 17.7383 9.915C17.7092 9.939 17.675 9.9561 17.6383 9.965C17.6083 9.975 17.5633 9.975 17.5133 9.975L17.2483 9.96L17.2833 9.26Z" fill="#9E3030"/>
<path d="M17.4183 9.385L17.3933 9.85H17.5833C17.6083 9.85 17.6283 9.84 17.6433 9.825C17.6583 9.81 17.6733 9.79 17.6833 9.76C17.6933 9.73 17.7033 9.685 17.7033 9.63L17.6983 9.505C17.6912 9.47864 17.6774 9.45454 17.6583 9.435C17.6417 9.4183 17.621 9.40624 17.5983 9.4C17.5605 9.39159 17.522 9.38657 17.4833 9.385H17.4183Z" fill="white"/>
<path d="M20.7131 10.51L20.8781 9.83L21.0981 9.88L21.2581 9.93C21.2931 9.95 21.3231 9.98 21.3381 10.025C21.3581 10.065 21.3581 10.11 21.3481 10.165C21.3381 10.205 21.3231 10.24 21.2981 10.265C21.2798 10.287 21.2569 10.3046 21.2309 10.3167C21.205 10.3288 21.1767 10.3351 21.1481 10.335C21.1131 10.335 21.0631 10.325 20.9981 10.31L20.9131 10.285L20.8531 10.545L20.7131 10.51Z" fill="#9E3030"/>
<path d="M20.9831 9.98L20.9431 10.17L21.0181 10.19C21.0681 10.2 21.1081 10.21 21.1281 10.205C21.1476 10.2023 21.1657 10.1936 21.18 10.1802C21.1944 10.1668 21.2042 10.1492 21.2081 10.13C21.2081 10.105 21.2081 10.085 21.1981 10.065C21.1871 10.0447 21.1695 10.0288 21.1481 10.02L21.0531 9.995L20.9881 9.98H20.9831Z" fill="white"/>
<path d="M21.3633 10.705L21.5983 10.045L21.8733 10.145C21.9483 10.17 21.9933 10.195 22.0233 10.215C22.0483 10.24 22.0683 10.265 22.0733 10.305C22.0783 10.345 22.0833 10.38 22.0733 10.42C22.0533 10.47 22.0233 10.505 21.9833 10.53C21.9433 10.55 21.8933 10.555 21.8333 10.545C21.8533 10.57 21.8733 10.595 21.8833 10.625L21.9233 10.76L21.9533 10.915L21.7983 10.86L21.7483 10.68C21.7392 10.6393 21.7275 10.5992 21.7133 10.56C21.7066 10.5444 21.6964 10.5307 21.6833 10.52C21.6733 10.505 21.6533 10.495 21.6183 10.485L21.5933 10.475L21.4933 10.755L21.3633 10.705Z" fill="#9E3030"/>
<path d="M21.6332 10.37L21.7282 10.405C21.7932 10.43 21.8332 10.44 21.8532 10.44C21.8682 10.44 21.8832 10.44 21.8982 10.425C21.9132 10.415 21.9232 10.4 21.9282 10.38C21.9382 10.36 21.9382 10.34 21.9282 10.32C21.9208 10.3006 21.9066 10.2846 21.8882 10.275L21.7882 10.24L21.6882 10.205L21.6282 10.37H21.6332Z" fill="white"/>
<path d="M22.1833 10.68C22.2005 10.6215 22.2294 10.567 22.2683 10.52C22.2936 10.4898 22.3241 10.4644 22.3583 10.445C22.3893 10.4275 22.4232 10.4156 22.4583 10.41C22.5083 10.41 22.5583 10.41 22.6133 10.43C22.658 10.4411 22.6999 10.4615 22.7361 10.4899C22.7723 10.5184 22.802 10.5542 22.8233 10.595C22.8633 10.675 22.8633 10.77 22.8333 10.88C22.8086 10.9745 22.7475 11.0554 22.6633 11.105C22.5883 11.15 22.4983 11.155 22.4033 11.125C22.3588 11.1137 22.3171 11.0931 22.2809 11.0647C22.2447 11.0363 22.2149 11.0006 22.1933 10.96C22.1733 10.9163 22.1621 10.8691 22.1604 10.821C22.1587 10.773 22.1665 10.725 22.1833 10.68Z" fill="#9E3030"/>
<path d="M22.3233 10.72C22.3033 10.795 22.2983 10.86 22.3233 10.91C22.3483 10.96 22.3833 10.99 22.4383 11.01C22.4883 11.025 22.5383 11.02 22.5883 10.99C22.6383 10.965 22.6683 10.91 22.6933 10.83C22.7183 10.755 22.7183 10.695 22.6933 10.645C22.6835 10.6213 22.6685 10.6 22.6495 10.5827C22.6305 10.5655 22.6079 10.5526 22.5833 10.545C22.5587 10.5365 22.5326 10.5335 22.5067 10.536C22.4808 10.5386 22.4558 10.5468 22.4333 10.56C22.3833 10.59 22.3483 10.64 22.3233 10.72Z" fill="white"/>
<path d="M23.5483 11.655L23.8683 11.035L24.1333 11.17C24.1833 11.194 24.2289 11.2261 24.2683 11.265C24.2933 11.29 24.3083 11.32 24.3083 11.36C24.3083 11.4 24.3083 11.435 24.2883 11.47C24.2691 11.515 24.2333 11.5508 24.1883 11.57C24.1383 11.58 24.0883 11.58 24.0333 11.56C24.0533 11.59 24.0633 11.62 24.0733 11.645C24.0833 11.675 24.0883 11.72 24.0933 11.785L24.1033 11.945L23.9533 11.87L23.9333 11.685C23.931 11.6431 23.926 11.6013 23.9183 11.56C23.9149 11.5413 23.9063 11.524 23.8933 11.51L23.8333 11.475L23.8083 11.46L23.6733 11.72L23.5483 11.655Z" fill="#9E3030"/>
<path d="M23.8584 11.36L23.9534 11.41C24.0134 11.44 24.0534 11.46 24.0684 11.46C24.0834 11.46 24.1034 11.46 24.1184 11.45C24.1334 11.445 24.1434 11.43 24.1534 11.41C24.1634 11.39 24.1684 11.37 24.1634 11.35C24.1572 11.3301 24.145 11.3126 24.1284 11.3C24.0991 11.282 24.0691 11.2654 24.0384 11.25L23.9384 11.2L23.8584 11.36Z" fill="white"/>
<path d="M26.1382 12.935C26.1706 12.8836 26.2131 12.8393 26.2632 12.805C26.2969 12.7835 26.3341 12.7682 26.3732 12.76C26.4095 12.7526 26.4469 12.7526 26.4832 12.76C26.5332 12.77 26.5782 12.79 26.6232 12.82C26.6621 12.8442 26.6956 12.8763 26.7214 12.9142C26.7472 12.9521 26.7649 12.9949 26.7732 13.04C26.7882 13.125 26.7632 13.22 26.7032 13.315C26.653 13.3976 26.5721 13.457 26.4782 13.48C26.4334 13.4897 26.3871 13.4898 26.3423 13.4803C26.2975 13.4708 26.2552 13.452 26.2182 13.425C26.1793 13.4008 26.1459 13.3687 26.12 13.3308C26.0942 13.2929 26.0766 13.2501 26.0682 13.205C26.0532 13.115 26.0782 13.025 26.1382 12.935Z" fill="#9E3030"/>
<path d="M26.2632 13.015C26.2132 13.08 26.1982 13.14 26.2082 13.195C26.2119 13.2203 26.221 13.2446 26.2348 13.2661C26.2486 13.2877 26.2668 13.306 26.2882 13.32C26.3382 13.355 26.3882 13.365 26.4382 13.35C26.4882 13.335 26.5382 13.3 26.5832 13.23C26.6282 13.16 26.6482 13.1 26.6382 13.05C26.6332 13 26.6032 12.955 26.5582 12.92C26.5132 12.885 26.4582 12.88 26.4082 12.895C26.3582 12.905 26.3082 12.945 26.2582 13.015H26.2632Z" fill="white"/>
<path d="M19.9233 10.225L20.0383 9.735L20.3983 9.82L20.3833 9.9L20.1183 9.84L20.0933 9.95L20.3383 10.005L20.3183 10.09L20.0733 10.03L20.0433 10.165L20.3183 10.23L20.2983 10.31L19.9233 10.225Z" fill="#9E3030"/>
</g>
<defs>
<filter id="filter0_d_36_758" x="0.833252" y="0" width="40" height="32" filterUnits="userSpaceOnUse" color-interpolation-filters="sRGB">
<feFlood flood-opacity="0" result="BackgroundImageFix"/>
<feColorMatrix in="SourceAlpha" type="matrix" values="0 0 0 0 0 0 0 0 0 0 0 0 0 0 0 0 0 0 127 0" result="hardAlpha"/>
<feOffset dy="4"/>
<feGaussianBlur stdDeviation="2"/>
<feComposite in2="hardAlpha" operator="out"/>
<feColorMatrix type="matrix" values="0 0 0 0 0 0 0 0 0 0 0 0 0 0 0 0 0 0 0.25 0"/>
<feBlend mode="normal" in2="BackgroundImageFix" result="effect1_dropShadow_36_758"/>
<feBlend mode="normal" in="SourceGraphic" in2="effect1_dropShadow_36_758" result="shape"/>
</filter>
</defs>
</svg>
